<?xml version="1.0" encoding="UTF-8"?>
<svg id="Layer_2" data-name="Layer 2" xmlns="http://www.w3.org/2000/svg" viewBox="0 0 694.2 438.79">
  <defs>
    <style>
      .cls-1 {
        fill-rule: evenodd;
      }

      .cls-1, .cls-2 {
        fill: #fff;
        stroke-width: 0px;
      }
    </style>
  </defs>
  <g id="Capa_1" data-name="Capa 1">
    <g>
      <path class="cls-1" d="m691.53,331.35c1.05-6.22,1.94-12.51,2.66-18.85l-504.37.1V44.69h-16.57l-.52,267.92-172.73-.84c.79,7.25,1.8,14.43,3.04,21.54l169.69,52.82-.3,52.66h17.39v-46.97l47.53,15.82v-18.3l-47.53-15.08v-42.88l501.71-.04Zm-519.1,38.19l-128.84-37.9h128.84s0,37.9,0,37.9Zm482.82-234.58h-13.78l-27.98,157.17v.4h13.38l5.54-34.76h31.3l5.53,34.76h13.78l-27.78-157.57Zm-21.05,110.47l13.92-85.31,13.78,85.31h-27.7Zm-39.22-62.33v-36.07c0-3.43-1.07-6.23-3.23-8.39-2.16-2.17-4.97-3.27-8.42-3.27h-38.6c-3.4,0-6.21,1.11-8.37,3.27-2.2,2.15-3.3,4.97-3.3,8.39v31.4c0,4.32,1.51,8.29,4.52,11.89l43.41,52.33v37.54h-33.95v-38.68h-13.98v39.37c0,3.43,1.09,6.23,3.3,8.39,2.16,2.16,4.97,3.25,8.37,3.25h38.6c3.46,0,6.26-1.09,8.42-3.25s3.23-4.97,3.23-8.39v-35.94c0-4.32-1.44-8.22-4.32-11.72l-43.62-52.28v-33.23h33.95v35.39h13.98Zm-99.56-47.73v113.59l-41.18-113.59h-10.45v157.17h13.16v-115.57l42,115.57h9.63v-157.17h-13.16Zm-111.09,144.83v-61.3h33.74v-12.56h-33.74v-58.62h37.02v-12.35h-51.02v157.17h51.64v-12.34h-37.64Zm-93.16-144.83v12.35h24.48v144.81h14v-144.81h24.28v-12.35h-62.75Zm-29.62,0v113.59l-41.18-113.59h-10.45v157.17h13.16v-115.57l42,115.57h9.63v-157.17h-13.16Zm-171.94,139.93l63.04-21.87v-10.93c-18.86,6.7-37.68,13.42-56.44,20.2,0-.68.06-1.73.13-3.17.09-1.45.1-2.56.1-3.31,0-7.62-2.89-11.42-8.73-11.42h-43.99c-2.56,0-4.67.82-6.28,2.45-1.63,1.61-2.45,3.72-2.45,6.28v39.01h117.66v-10.47H44.23v-26.78h43.27v18.57l2.1,1.44Zm-45.37-70.82v-18.17h-9.24v46.97h9.24v-18.33h108.41v-10.47H44.23Zm99.17-69.12v28.18h-45.89v-25.24h-9.39v25.24h-43.89v-27.7h-9.24v38.19h117.66v-38.66h-9.24Z"/>
      <g>
        <path class="cls-2" d="m307.27,416.52c3.45,2.7,7.23,4.05,11.35,4.05,3.77,0,7.21-1.05,10.34-3.14,3.12-2.1,5.15-4.81,6.07-8.15,1.14,1.56,1.7,3.62,1.7,6.18,0,3.34-.96,6.75-2.88,10.23-1.92,3.48-4.85,6.39-8.79,8.74-3.95,2.34-8.79,3.52-14.55,3.52-6.4,0-12.15-1.62-17.27-4.85-5.12-3.23-9.13-7.66-12.04-13.27-2.91-5.61-4.37-11.83-4.37-18.65,0-7.46,1.69-14.26,5.06-20.41,3.37-6.14,7.96-10.98,13.75-14.49,5.79-3.52,12.17-5.28,19.13-5.28,3.98,0,7.64.64,10.98,1.92,3.34,1.28,5.9,2.88,7.67,4.8,2.63,2.7,3.95,5.65,3.95,8.85s-1.26,5.81-3.79,8.05c-2.52,2.24-5.63,3.36-9.33,3.36-1.63,0-3.41-.28-5.33-.85.92-2.98,1.38-6.04,1.38-9.17,0-4.26-.87-7.87-2.61-10.82-1.74-2.95-4-4.42-6.77-4.42-.78,0-1.56.14-2.35.43-3.34,1.07-6.02,4.05-8.05,8.95-2.02,4.9-3.04,10.55-3.04,16.95,0,5.4.71,10.48,2.13,15.24,1.63,5.47,4.17,9.56,7.62,12.26Z"/>
        <path class="cls-2" d="m392.69,436.98h-5.86c-2.56-.07-4.51-.59-5.86-1.55-1.35-.96-2.13-2.82-2.35-5.6-1.14,2.91-3.3,5.13-6.5,6.66-3.2,1.53-6.79,2.29-10.77,2.29-3.48,0-6.79-.6-9.91-1.81-3.13-1.21-5.6-2.97-7.41-5.28-1.81-2.31-2.58-5.1-2.29-8.37.35-3.62,1.61-6.62,3.78-9.01,2.17-2.38,4.69-4.21,7.57-5.49,2.88-1.28,6.56-2.63,11.03-4.05,3.41-1.07,6.02-1.97,7.84-2.72,1.81-.75,3.34-1.7,4.58-2.88,1.24-1.17,1.87-2.61,1.87-4.32,0-3.76-.57-6.45-1.71-8.05s-3.23-2.33-6.29-2.19c-2.2.07-4.01.89-5.43,2.45-1.42,1.56-2.13,3.34-2.13,5.33,0,1.42.44,2.7,1.33,3.84.89,1.14,2.22,1.99,4,2.56-1.07,1.64-2.97,3.02-5.7,4.16-2.74,1.14-5.49,1.7-8.26,1.7s-5.1-.67-6.98-2.02c-1.88-1.35-2.82-3.41-2.82-6.18s1.28-5.06,3.84-7.09c2.56-2.02,5.82-3.59,9.8-4.69,3.98-1.1,8.1-1.65,12.36-1.65,8.17,0,15.06,1.72,20.68,5.17,5.61,3.45,8.42,10.11,8.42,19.98v24.62c0,2.06.71,3.09,2.13,3.09h2.67v1.07h-11.62Zm-23.98-5.33c1.07.36,2.13.53,3.2.53,1.77,0,3.3-.62,4.58-1.86,1.28-1.24,1.95-3.21,2.02-5.92v-25.69c-1.49,2.49-3.98,5.61-7.46,9.38-1.92,2.2-3.39,3.93-4.42,5.17-1.03,1.24-1.86,2.54-2.51,3.89-.92,1.78-1.38,3.66-1.38,5.65,0,1.49.28,2.9.85,4.21.57,1.32,1.39,2.4,2.45,3.25.71.57,1.6,1.03,2.66,1.39Z"/>
        <path class="cls-2" d="m472.51,436.98h-30.48v-1.07h2.66c1.42,0,2.13-1.07,2.13-3.2v-34.64c0-5.04-1.28-7.57-3.84-7.57-1.35,0-2.86.64-4.53,1.92-1.67,1.28-3.07,2.7-4.21,4.26v36.13c0,1.99.71,3.02,2.13,3.09h2.67v1.07h-30.48v-1.07h2.67c1.42,0,2.13-1.07,2.13-3.2v-36.13c0-1.63-.46-2.75-1.39-3.36-.93-.6-2.06-.84-3.41-.69v-.85c3.84-.57,8.21-1.63,13.11-3.2,4.9-1.56,8.95-3.16,12.15-4.8l.42.53v10.55c1.49-1.99,3.54-3.98,6.13-5.97,2.59-1.99,5.24-3.48,7.94-4.48,1.7-.64,3.55-.96,5.54-.96,3.84,0,7.1,1.28,9.81,3.84,2.7,2.56,4.05,6.47,4.05,11.72v33.89c0,.92.18,1.67.53,2.24.35.57.89.85,1.6.85h2.66v1.07Z"/>
        <path class="cls-2" d="m534.22,435.06c.35.57.89.85,1.6.85h2.77v1.07h-17.37c-2.56-.07-4.53-.59-5.91-1.55-1.39-.96-2.19-2.82-2.4-5.6v.21c-.28,2.13-1.81,3.91-4.58,5.33-2.77,1.42-5.97,2.13-9.59,2.13s-7.21-.85-10.55-2.56c-3.34-1.71-6.07-4.48-8.21-8.31s-3.2-8.77-3.2-14.81c0-6.75,1.44-12.24,4.32-16.47,2.88-4.23,6.45-7.25,10.71-9.06,4.26-1.81,8.56-2.72,12.89-2.72,3.63,0,6.36.5,8.21,1.49v-17.8c0-2.77-1.24-4.16-3.73-4.16l-1.17.11v-.85c12.43-2.56,20.89-5.22,25.36-7.99l.32.53v77.91c0,.92.18,1.67.53,2.24Zm-22.49-48.49c-.78-.99-1.74-1.49-2.88-1.49-1.56,0-3.13.87-4.69,2.61-1.56,1.74-2.88,4.42-3.94,8.05-1.07,3.62-1.6,8.14-1.6,13.54,0,4.41.53,8.3,1.6,11.67,1.06,3.38,2.4,5.97,4,7.78,1.6,1.81,3.14,2.72,4.63,2.72,1.21,0,2.17-.6,2.88-1.81.71-1.21,1.1-3.02,1.17-5.43v-33.57c0-1.71-.39-3.05-1.17-4.05Z"/>
        <path class="cls-2" d="m570.67,435.91h2.67v1.07h-30.48v-1.07h2.67c1.42,0,2.13-1.07,2.13-3.2v-65.44c0-2.77-1.21-4.16-3.63-4.16l-1.17.11v-.85c12.36-2.56,20.78-5.22,25.26-7.99l.42.53v77.91c0,1.99.71,3.02,2.13,3.09Z"/>
        <path class="cls-2" d="m631.48,423.82c-2.02,3.66-5.13,6.84-9.33,9.54-4.19,2.7-9.34,4.05-15.45,4.05-5.4,0-10.3-1.07-14.71-3.2-4.41-2.13-7.91-5.26-10.5-9.38-2.59-4.12-3.89-9.02-3.89-14.71,0-5.33,1.4-10.04,4.21-14.12,2.81-4.08,6.57-7.25,11.3-9.48,4.72-2.24,9.86-3.36,15.4-3.36,2.98,0,5.97.52,8.95,1.55,2.98,1.03,5.61,2.75,7.89,5.17,2.27,2.42,3.69,5.51,4.26,9.27l-28.88,15.67c1.77,3.41,4.03,5.99,6.77,7.73,2.74,1.74,5.7,2.61,8.9,2.61,3.55,0,6.93-1.03,10.12-3.09,3.2-2.06,5.72-4.94,7.57-8.63l.32.75c.07,2.77-.91,5.99-2.93,9.64Zm-31.49-10.5l10.23-5.97c-.21-4.48-1.03-9.17-2.45-14.07-1.42-4.9-3.34-7.35-5.75-7.35-.29,0-.64.07-1.07.21-1.21.36-2.17,1.72-2.88,4.1-.71,2.38-1.07,5.17-1.07,8.37,0,4.62.75,8.95,2.24,13,.35.92.6,1.49.75,1.71Z"/>
        <path class="cls-2" d="m670.64,402.88c4.47,2.56,8.13,4.78,10.98,6.66,2.84,1.88,5.29,4.07,7.35,6.55,2.06,2.49,3.09,5.12,3.09,7.89-.07,3.06-1.4,5.69-4,7.89-2.6,2.2-6,3.87-10.23,5.01-4.23,1.14-8.83,1.71-13.8,1.71-7.18,0-13-.84-17.48-2.5-4.48-1.67-7.03-4.25-7.67-7.73-.14-.85-.21-1.49-.21-1.92,0-2.63.87-4.78,2.61-6.45,1.74-1.67,3.96-2.5,6.66-2.5s4.9.62,6.4,1.86c1.49,1.24,2.24,2.68,2.24,4.32s-.6,2.84-1.81,3.84c-1.07.85-1.6,1.81-1.6,2.88,0,1.56.96,2.97,2.88,4.21s4.4,1.9,7.46,1.97c2.41.07,4.54-.59,6.4-1.97,1.84-1.39,2.77-3.04,2.77-4.96s-1-3.76-2.98-5.54c-1.56-1.42-3.38-2.72-5.44-3.89-2.06-1.17-4.55-2.43-7.46-3.78-3.91-1.85-7.05-3.52-9.43-5.01-2.38-1.49-4.39-3.34-6.02-5.54-1.63-2.2-2.45-4.83-2.45-7.89,0-2.84,1.23-5.42,3.68-7.73,2.45-2.31,5.68-4.14,9.7-5.49,4.01-1.35,8.22-2.02,12.63-2.02s9.02.68,13.86,2.02c2.7.64,4.55.96,5.54.96,1.13,0,2.17-.25,3.09-.75l.85.64-3.52,9.17-2.77,7.35h-1.07c-.43-4.62-1.85-8.65-4.26-12.1-2.42-3.45-5.9-5.17-10.45-5.17-2.2,0-4.09.64-5.65,1.92-1.56,1.28-2.35,2.84-2.35,4.69,0,2.2,1.17,4.19,3.52,5.97,1.71,1.28,4.69,3.09,8.95,5.44Z"/>
      </g>
      <path class="cls-2" d="m187.48,36.51c.69-1.67.67-3.73-.22-5.83-2.26-5.35-5.76-9.5-5.76-9.5,0,0-3.5,4.15-5.76,9.5-.88,2.1-.9,4.16-.22,5.83-6.2-2.81-8.62-10.13-5.45-17.65,4.48-10.62,11.43-18.86,11.43-18.86,0,0,6.95,8.24,11.43,18.86,3.17,7.52.75,14.84-5.45,17.65Z"/>
    </g>
  </g>
</svg>