<?xml version="1.0" encoding="UTF-8"?>
<!DOCTYPE svg PUBLIC "-//W3C//DTD SVG 1.1//EN" "http://www.w3.org/Graphics/SVG/1.1/DTD/svg11.dtd">
<!-- Creator: CorelDRAW (Evaluation Version) -->
<svg xmlns="http://www.w3.org/2000/svg" xml:space="preserve" width="16.5354in" height="16.5354in" version="1.1" style="shape-rendering:geometricPrecision; text-rendering:geometricPrecision; image-rendering:optimizeQuality; fill-rule:evenodd; clip-rule:evenodd"
viewBox="0 0 16535.43 16535.43"
 xmlns:xlink="http://www.w3.org/1999/xlink"
 xmlns:xodm="http://www.corel.com/coreldraw/odm/2003">
 <defs>
  <style type="text/css">
   <![CDATA[
    .fil1 {fill:white}
    .fil2 {fill:#3AA756}
    .fil5 {fill:#4578D1}
    .fil4 {fill:#E8453C}
    .fil3 {fill:#FABC2D}
    .fil0 {fill:#ED6E00}
   ]]>
  </style>
 </defs>
 <g id="Capa_x0020_1">
  <metadata id="CorelCorpID_0Corel-Layer"/>
  <g id="_105553220121696">
   <ellipse class="fil0" cx="26470.66" cy="21707.52" rx="6109.95" ry="6108.6"/>
   <g>
    <path class="fil1" d="M27915.34 23457.52l1375 0c205.91,-0.23 166.67,-71.91 166.67,416.67l-1500 0c0,-147.28 24.59,-290.57 -41.67,-416.67zm-1250 1805.56l-367.69 0c-198.2,-11.14 -229.53,-73.24 -229.53,-361.11 -51.74,-4.31 -73.5,-21.76 -111.11,-41.67 -46.13,68.89 -136.64,166.67 -250,166.67 -131.16,0 -202.2,-119.91 -294.23,-191.89 -375.54,-293.78 -101.99,-429.58 -25.22,-544.22 -17.41,-32.91 -32.21,-56.63 -41.66,-97.22 -98.05,0 -196.07,8.8 -278.41,-41.04 -35.61,-21.56 -29.94,-14.63 -41.04,-56.19 -342.59,0 -685.19,0 -1027.78,0 -312.71,0 -736.11,89.34 -736.11,-277.78 0,-131.33 -35.59,-385.83 58.62,-483.05 75.22,-77.64 126.71,-86.39 233.05,-86.39l0 -2555.56c31.11,-20.83 48.79,-55.56 83.33,-55.56 69.44,0 66.57,16.43 125,55.56l0 2555.56 1583.33 0c-62.61,-93.5 -225.65,-194.11 -45.35,-392.56l118.44 -103.78c85.11,-76.57 296.06,-392.75 538.01,-31.43 37.61,-19.91 59.37,-37.36 111.11,-41.67l0 -125c-222.45,-4.96 -578.11,-117.17 -758.32,-227.8 -180.76,-110.96 -363.85,-222.22 -501.97,-386.91 -22.45,-26.77 -16.57,-27.77 -41.72,-55.5 -128.13,-141.3 -217.47,-321.56 -272.69,-505.09 -171.91,-571.41 87.11,-1112.37 515.3,-1467.43 158.34,-131.3 318.3,-220.21 519.7,-299.74 306.52,-121.04 570.49,-140.85 914.7,-140.85 362.65,0 725.54,120.44 989.12,288.66 241.98,154.44 341.22,287.83 413.67,336.34 -1.65,-73.69 -31.91,-99.04 -53.66,-154.68 -19.78,-50.62 -45.04,-89.8 -54.5,-139.94 -22.57,-119.54 -8.33,-221.61 34.04,-321.16 32.81,-77.08 188.59,-252.81 257.82,-325.52 23.81,-25.01 70.57,-86.48 107.96,-86.48 96.15,0 119.65,31.07 141.79,122.1 70.91,291.63 42.17,195.16 153.7,318.52 115.49,127.73 45.18,334.39 18.01,484 -27.91,153.74 -7.98,1601.98 -7.95,1867.06 0.02,141.82 6.04,230.49 -65.66,309.33 -96.58,106.2 -230.36,152.08 -369.8,84.45 -124.05,-60.17 -161.76,-181.92 -161.76,-310.45 -72.47,48.52 -138.71,126.96 -204.97,183.92 -174.93,150.33 -546.44,353.26 -767.25,371.64l0 180.55c51.73,4.31 73.5,21.76 111.11,41.67 241.94,-361.31 452.9,-45.14 538.01,31.43 30.19,27.17 39.28,25.91 69.96,55.04 253.95,241.27 71.61,339.05 3.15,441.31l1583.33 0 0 -4263.89 -5416.67 0 0 1291.67c0,114.14 -208.33,111.85 -208.33,0l0 -1291.67c-86.12,0 -160.55,-4.83 -221.58,-70.09 -2.76,-2.95 -9.96,-12.11 -12.57,-15.2 -91.43,-108.46 -57.51,-344.19 -57.51,-484.15 0,-81.41 16.39,-133.91 58.62,-177.5 35.65,-36.79 82.94,-86.39 149.71,-86.39l6000 0c129.03,0 208.33,145.23 208.33,263.89 0,311.88 62.95,569.44 -291.67,569.44l0 4263.89c106.33,0 157.83,8.76 233.05,86.39 42.23,43.59 58.62,96.08 58.62,177.49 0,295.81 67.22,520.68 -244.05,575.4 -157.96,27.77 -1303.45,7.93 -1519.84,7.93 -31.78,119.02 -225.06,97.22 -319.44,97.22 -9.46,40.59 -24.26,64.31 -41.67,97.22 64.19,95.85 166.67,123.91 166.67,277.78 0,183.74 -285.48,243.73 -222.22,-27.78 -41.98,-28.11 -69.98,-63.37 -107.69,-100.65 -91.45,-90.43 -81.07,-123.06 -31.13,-232.62 123.43,-270.83 33.48,-236.18 388.82,-236.18l0 -361.11c-227.6,0 -282.01,45.65 -349.01,-137.1 -10.94,-29.84 -27.88,-74.33 -44.37,-108.41 -96.63,-199.69 45.3,-191.36 143.37,-337.82 -44.84,-66.97 -198.94,-206.51 -263.89,-250 -66.45,44.49 -145.04,180.56 -236.11,180.56 -19.21,0 -146.49,-61.28 -176.03,-73.97l-157.3 -78.81c0,-55.56 -0.47,-111.32 0.19,-166.85 0.7,-58.84 15.59,-110.93 -41.85,-110.93 -409.82,0 -347.22,-76.04 -347.22,277.78 -73.86,49.46 -90.09,48.46 -166.68,83.32 -34.04,15.49 -142.18,69.46 -180.54,69.46 -66.61,0 -166.97,-143.56 -222.22,-180.56 -31.88,21.34 -44.39,37.38 -72.78,66.11 -31.81,32.22 -35.99,30.77 -68.67,56.33 -41.17,32.21 -94.74,86.19 -122.45,127.56 115.97,173.19 243.27,117.99 138.82,347.15 -127.29,279.28 -46.2,236.18 -388.82,236.18l0 361.11c280.28,0 283.29,-32.43 352.8,147.2 13.52,34.94 24.73,65.55 40.58,98.31 96.63,199.69 -45.3,191.36 -143.38,337.82 55.09,82.27 178.52,192.83 263.89,250 66.44,-44.49 145.03,-180.56 236.11,-180.56 14.83,0 144.3,60.97 176.21,73.79l157.12 78.99 0 277.78 388.89 0 0 -277.78c34.35,-23 29.9,-31.96 74.47,-50.53 327.2,-136.36 273.94,-139.53 449.81,40.14l89.51 63.28c169.07,109.44 -75.43,357.35 -294.34,30.45 -37.61,19.9 -59.38,37.36 -111.11,41.67 0,156.48 11.43,361.11 -208.33,361.11zm-1680.56 -1666.67l0 277.78 -1500 0c0,-507.56 -84.89,-416.67 347.22,-416.67 398.15,0 796.3,0 1194.44,0 -14.94,55.95 -41.67,55.72 -41.67,138.89zm3083.33 -1611.11l0 -1847.22 152.78 0 0 1888.89c-70.71,47.35 -28.69,53.45 -138.89,27.78 -7.26,-31.15 -13.89,-31.94 -13.89,-69.45zm-3402.78 -902.77c0,-281.49 23.19,-444.85 186.08,-688.92 189.06,-283.3 521.26,-515.78 844.37,-613.97 398.85,-121.21 738.83,-133.02 1150.11,-30.45 232.05,57.87 493.77,181.48 676.96,336.93 87.39,74.15 323.04,304.37 323.04,413.07l0 1055.56c0,70.67 -228.83,320.17 -327.72,394.51 -132.87,99.88 -186.35,144.85 -357.31,226.02 -513.63,243.88 -722.52,88.99 -976.07,162.94 -133.94,39.07 -610.91,-111.9 -760.35,-195.36l-106.13 -60.54c-334.14,-191.74 -652.98,-600.41 -652.98,-999.8zm3277.78 -1388.89c0,-121.43 46.91,-159.26 108.51,-238.72 19.42,-25.05 33.86,-36.69 58.16,-52.95 16.76,71.94 50.71,166.14 108.35,211.09 125.62,97.97 30.53,73.6 30.53,316.69l-222.22 0c-28.95,-54.71 -83.33,-156.57 -83.33,-236.11zm-4458.33 -1291.67c0,-32 9.66,-41.67 41.67,-41.67l5888.89 0c32,0 41.67,9.66 41.67,41.67l0 375 -5791.67 0c-84.49,0 -101.31,-13.89 -180.56,-13.89l0 -361.11z"/>
    <path class="fil1" d="M26123.68 23818.63c0,-499.33 694.44,-499.33 694.44,0 0,251.79 -354.54,439.72 -587.26,226.15 -46.69,-42.85 -107.19,-141.2 -107.19,-226.15zm-222.22 -27.78c0,147.61 76.74,298.19 149.05,378.72 330.44,367.97 989.83,138 989.83,-378.72 0,-299.88 -273.04,-555.56 -500,-555.56 -180.76,0 -340.32,10.34 -489.83,176.84 -72.31,80.53 -149.05,231.11 -149.05,378.72z"/>
    <path class="fil1" d="M26429.23 21651.97c0,-255.3 431.68,-362.18 633.89,-231.12 336.81,218.31 -124.38,598.83 -495.37,412.04 -68.46,-34.47 -138.52,-108.24 -138.52,-180.93zm-208.33 -55.56c0,161.01 22.4,278.21 174.75,380.8 566.42,381.44 1312.8,-219.32 863.5,-669.06 -142.22,-142.37 -282.46,-156.19 -468.81,-156.19 -164.11,0 -270.91,60.42 -372.34,127.66 -80.08,53.09 -197.11,191.33 -197.11,316.79z"/>
    <path class="fil1" d="M25776.45 20263.08c0,-54.52 -2.83,-69.56 35.8,-116.98 113.12,-138.85 339.2,-76.42 339.2,116.98 0,244.91 -375,244.91 -375,0zm-222.22 0c0,218.22 180.52,402.78 416.67,402.78 215.32,0 402.78,-187.46 402.78,-402.78 0,-533.12 -819.44,-536.52 -819.44,0z"/>
    <path class="fil1" d="M26762.57 20318.63c0,-220.28 252.83,-271.72 350.77,-114.67 45.96,73.7 57.2,281.33 -184.11,281.33 -83.44,0 -166.67,-83.24 -166.67,-166.67zm-222.22 -13.89c0,210.32 183.69,402.78 416.67,402.78 343.15,0 503.87,-395.43 335.95,-627.62 -252.54,-349.18 -752.62,-146.8 -752.62,224.84z"/>
    <path class="fil1" d="M25290.34 21124.19c-272.88,0 -234.57,-375 -41.67,-375 262.48,0 256.14,224.32 170.75,309.63 -27.87,27.84 -81.76,65.36 -129.08,65.36zm-416.67 -222.22c0,500.44 607.62,570.69 777.92,194.59 74.68,-164.91 36.43,-326.93 -72.61,-441.57 -151.24,-159.01 -411.73,-178.55 -577,-13.6 -68.41,68.28 -128.31,152.95 -128.31,260.58z"/>
   </g>
  </g>
  <g id="_105553220110688">
   <path class="fil2" d="M41537.46 25244.42c-1539.06,-888.81 -2654.18,-2429.4 -2968.65,-4244.5l2968.65 924.02 0 3320.48zm-5.21 -4274.17l-2253.86 0.3 2253.86 662.99 0 -663.28z"/>
   <path class="fil3" d="M41836.57 14493.52c827.07,-418 1761.94,-653.71 2751.96,-653.71 3374.43,0 6109.95,2735.52 6109.95,6109.95 0,231.96 -13.38,460.77 -38.55,686.02l-8823.37 1.87 0 -6144.13zm8258.51 4968.82l-241.12 -1492.29 -243.52 1492.29 484.64 0zm-6773.49 824.12l-168.54 0 -734.75 -2021.91 0 2021.91 -230.32 0 0 -2749.46 182.94 0 720.35 1987.12 0 -1987.12 230.32 0 0 2749.46zm1385.53 -2533.54l-424.65 0 0 2533.54 -244.72 0 0 -2533.54 -428.26 0 0 -215.93 1097.63 0 0 215.93zm1190.59 2533.54l-903.29 0 0 -2749.46 892.5 0 0 215.93 -647.78 0 0 1025.65 590.2 0 0 219.53 -590.2 0 0 1072.43 658.57 0 0 215.93zm1515.08 0l-168.54 0 -734.75 -2021.91 0 2021.91 -230.32 0 0 -2749.46 182.93 0 720.36 1987.12 0 -1987.12 230.32 0 0 2749.46zm1511.48 -203.93c0,59.98 -18.59,109.16 -56.38,146.95 -37.79,37.79 -86.97,56.98 -147.55,56.98l-675.37 0c-59.38,0 -108.56,-19.19 -146.35,-56.98 -38.39,-37.79 -57.58,-86.97 -57.58,-146.95l0 -688.57 244.72 0 0 676.57 593.8 0 0 -656.78 -759.34 -915.29c-52.78,-62.98 -79.18,-132.56 -79.18,-208.13l0 -549.41c0,-59.98 19.2,-109.16 57.58,-146.95 37.79,-37.79 86.97,-56.98 146.35,-56.98l675.37 0c60.58,0 109.76,19.19 147.55,56.98 37.79,37.79 56.38,86.97 56.38,146.95l0 630.98 -244.72 0 0 -618.99 -593.8 0 0 581.2 762.94 914.69c50.38,61.18 75.57,129.56 75.57,205.13l0 628.59zm1540.27 203.93l-241.11 0 -96.57 -608.19 -547.61 0 -97.17 608.19 -233.92 0 0 -7.2 489.43 -2749.46 241.12 0 485.83 2756.66z"/>
   <path class="fil4" d="M38515.69 20623.13c-24.34,-221.13 -37.11,-445.75 -37.11,-673.37 0,-2263.13 1230.5,-4238.77 3058.88,-5294.66l0 5982.62 -3021.78 -14.59zm2670.37 -3086.13l0 676.14 -2058.06 0 0 -668.06 161.63 0 0 484.88 767.73 0 0 -441.78 164.32 0 0 441.78 802.75 0 0 -492.96 161.63 0zm-1896.43 891.2l0 317.87 1896.43 0 0 183.18 -1896.43 0 0 320.56 -161.63 0 0 -821.61 161.63 0zm1896.43 982.78l0 191.26 -1102.66 382.52 -36.81 -25.14 0 -325.05 -756.96 0 0 468.72 1896.43 0 0 183.18 -2058.06 0 0 -682.43c0,-44.9 14.37,-81.71 42.65,-110 28.29,-28.29 65.1,-42.65 110,-42.65l769.53 0c101.92,0 152.65,66.44 152.65,199.79 0,13.02 -0.45,32.32 -1.8,57.91 -1.35,25.15 -2.25,43.55 -2.25,55.22 328.19,-118.53 657.29,-236.15 987.28,-353.33z"/>
   <path class="fil5" d="M44588.54 26059.72c-990.02,0 -1924.9,-235.72 -2751.96,-653.71l0 -3382.46 831.44 276.86 0 -320.15 -831.44 -263.69 0 -750.34 8777.37 -0.55c-483.84,2890.84 -2997.13,5094.04 -6025.4,5094.04z"/>
  </g>
  <g id="_105553220286976">
   <circle class="fil1" cx="-81710.68" cy="30999.92" r="16250"/>
   <g>
    <path class="fil2" d="M-89825.3 45081.58c-4093.27,-2363.87 -7059.04,-6461.23 -7895.41,-11288.65l7895.41 2457.51 0 8831.14zm-13.87 -11367.55l-5994.34 0.78 5994.34 1763.28 0 -1764.06z"/>
    <path class="fil3" d="M-89029.79 16488.54c2199.67,-1111.71 4686.06,-1738.61 7319.11,-1738.61 8974.63,0 16250,7275.37 16250,16250 0,616.93 -35.59,1225.46 -102.54,1824.52l-23466.57 4.99 0 -16340.9zm21964.28 13215.05l-641.28 -3968.89 -647.65 3968.89 1288.93 0zm-18014.74 2191.82l-448.26 0 -1954.13 -5377.46 0 5377.46 -612.56 0 0 -7312.45 486.54 0 1915.85 5284.94 0 -5284.94 612.56 0 0 7312.45zm3684.94 -6738.18l-1129.41 0 0 6738.18 -650.85 0 0 -6738.18 -1138.98 0 0 -574.28 2919.24 0 0 574.28zm3166.5 6738.18l-2402.39 0 0 -7312.45 2373.68 0 0 574.28 -1722.83 0 0 2727.81 1569.69 0 0 583.85 -1569.69 0 0 2852.24 1751.54 0 0 574.28zm4029.51 0l-448.25 0 -1954.14 -5377.46 0 5377.46 -612.56 0 0 -7312.45 486.54 0 1915.85 5284.94 0 -5284.94 612.56 0 0 7312.45zm4019.94 -542.37c0,159.52 -49.45,290.33 -149.95,390.83 -100.5,100.5 -231.31,151.54 -392.42,151.54l-1796.21 0c-157.93,0 -288.74,-51.05 -389.23,-151.54 -102.09,-100.5 -153.14,-231.31 -153.14,-390.83l0 -1831.31 650.85 0 0 1799.4 1579.26 0 0 -1746.76 -2019.54 -2434.3c-140.38,-167.5 -210.57,-352.54 -210.57,-553.54l0 -1461.22c0,-159.52 51.05,-290.33 153.14,-390.83 100.5,-100.5 231.3,-151.54 389.23,-151.54l1796.21 0c161.11,0 291.92,51.05 392.42,151.54 100.5,100.5 149.95,231.31 149.95,390.83l0 1678.17 -650.85 0 0 -1646.26 -1579.26 0 0 1545.76 2029.11 2432.7c134,162.71 201,344.57 201,545.56l0 1671.78zm4096.5 542.37l-641.27 0 -256.83 -1617.54 -1456.43 0 -258.43 1617.54 -622.13 0 0 -19.14 1301.69 -7312.45 641.28 0 1292.12 7331.59z"/>
    <path class="fil4" d="M-97862 32790.82c-64.73,-588.12 -98.69,-1185.52 -98.69,-1790.89 0,-6019 3272.63,-11273.41 8135.39,-14081.65l0 15911.34 -8036.69 -38.8zm7102.1 -8207.87l0 1798.26 -5473.59 0 0 -1776.77 429.86 0 0 1289.59 2041.85 0 0 -1174.96 437.03 0 0 1174.96 2134.99 0 0 -1311.09 429.86 0zm-5043.73 2370.22l0 845.4 5043.73 0 0 487.18 -5043.73 0 0 852.56 -429.86 0 0 -2185.14 429.86 0zm5043.73 2613.81l0 508.67 -2932.63 1017.34 -97.91 -66.87 0 -864.5 -2013.19 0 0 1246.6 5043.73 0 0 487.18 -5473.59 0 0 -1814.98c0,-119.41 38.21,-217.32 113.43,-292.55 75.23,-75.23 173.14,-113.43 292.55,-113.43l2046.63 0c271.05,0 405.98,176.72 405.98,531.36 0,34.63 -1.19,85.97 -4.78,154.03 -3.58,66.87 -5.97,115.83 -5.97,146.87 872.86,-315.23 1748.11,-628.07 2625.75,-939.73z"/>
    <path class="fil5" d="M-81710.69 47249.93c-2633.05,0 -5119.44,-626.91 -7319.11,-1738.61l0 -8995.98 2211.29 736.33 0 -851.46 -2211.29 -701.3 0 -1995.61 23344.23 -1.46c-1286.82,7688.46 -7971.16,13548.09 -16025.13,13548.09z"/>
   </g>
  </g>
  <path class="fil1" d="M14719.76 9848.58l-9983 0.62 0 853.41 945.64 299.91 0 364.12 -945.64 -314.89 0 3847.07c-115.32,-58.28 -228.68,-119.85 -340.2,-184.26l0 -3776.09 -3376.29 -1050.9c-1.71,-9.96 -60.55,-428.59 -60.55,-428.59l3436.83 16.59 0 -6804.37c0,0 340.2,-183.78 340.2,-183.78l0 6988.07 10035.32 -2.13c0,0 -52.32,375.21 -52.32,375.21zm-10329.13 5.22l-2563.44 0.33 2563.44 754.05 0 -754.39zm9739 -1715.04l-274.24 -1697.27 -276.96 1697.27 551.2 0zm-7703.88 937.31l-191.69 0 -835.67 -2299.63 0 2299.63 -261.96 0 0 -3127.12 208.06 0 819.3 2260.07 0 -2260.07 261.96 0 0 3127.12zm1575.84 -2881.53l-482.98 0 0 2881.53 -278.33 0 0 -2881.53 -487.08 0 0 -245.59 1248.39 0 0 245.59zm1354.13 2881.53l-1027.37 0 0 -3127.12 1015.09 0 0 245.59 -736.76 0 0 1166.53 671.27 0 0 249.68 -671.27 0 0 1219.74 749.04 0 0 245.58zm1723.19 0l-191.69 0 -835.67 -2299.63 0 2299.63 -261.96 0 0 -3127.12 208.06 0 819.3 2260.07 0 -2260.07 261.96 0 0 3127.12zm1719.1 -231.94c0,68.22 -21.15,124.16 -64.13,167.14 -42.98,42.98 -98.92,64.8 -167.82,64.8l-768.13 0c-67.54,0 -123.48,-21.83 -166.45,-64.8 -43.66,-42.98 -65.49,-98.92 -65.49,-167.14l0 -783.15 278.33 0 0 769.5 675.36 0 0 -746.99 -863.64 -1041.01c-60.04,-71.63 -90.05,-150.76 -90.05,-236.72l0 -624.88c0,-68.22 21.83,-124.16 65.49,-167.13 42.98,-42.98 98.91,-64.81 166.45,-64.81l768.13 0c68.9,0 124.84,21.83 167.82,64.81 42.98,42.98 64.13,98.92 64.13,167.13l0 717.65 -278.33 0 0 -704.01 -675.36 0 0 661.03 867.74 1040.33c57.3,69.58 85.96,147.35 85.96,233.31l0 714.93zm1751.84 231.94l-274.24 0 -109.83 -691.73 -622.83 0 -110.52 691.73 -266.05 0 0 -8.19 556.66 -3127.12 274.24 0 552.57 3135.3zm-10552.96 -3127.12l0 769.01 -2340.75 0 0 -759.82 183.83 0 0 551.49 873.18 0 0 -502.46 186.89 0 0 502.46 913.01 0 0 -560.68 183.83 0zm-2156.92 1013.61l0 361.53 2156.92 0 0 208.34 -2156.92 0 0 364.59 -183.83 0 0 -934.46 183.83 0zm2156.92 1117.78l0 217.53 -1254.12 435.06 -41.87 -28.59 0 -369.7 -860.93 0 0 533.1 2156.92 0 0 208.33 -2340.75 0 0 -776.16c0,-51.06 16.34,-92.94 48.51,-125.11 32.17,-32.17 74.04,-48.51 125.1,-48.51l875.23 0c115.91,0 173.61,75.57 173.61,227.23 0,14.81 -0.51,36.76 -2.04,65.87 -1.54,28.6 -2.56,49.53 -2.56,62.81 373.27,-134.81 747.57,-268.59 1122.89,-401.87z"/>
 </g>
</svg>
