<?xml version="1.0" encoding="UTF-8"?>
<!DOCTYPE svg PUBLIC "-//W3C//DTD SVG 1.1//EN" "http://www.w3.org/Graphics/SVG/1.1/DTD/svg11.dtd">
<!-- Creator: CorelDRAW -->
<svg xmlns="http://www.w3.org/2000/svg" xml:space="preserve" width="8.5in" height="11in" version="1.1" style="shape-rendering:geometricPrecision; text-rendering:geometricPrecision; image-rendering:optimizeQuality; fill-rule:evenodd; clip-rule:evenodd"
viewBox="0 0 8500 11000"
 xmlns:xlink="http://www.w3.org/1999/xlink"
 xmlns:xodm="http://www.corel.com/coreldraw/odm/2003">
 <defs>
  <style type="text/css">
   <![CDATA[
    .fil0 {fill:white}
    .fil1 {fill:#3AA756}
    .fil4 {fill:#4578D1}
    .fil3 {fill:#E8453C}
    .fil2 {fill:#FABC2D}
   ]]>
  </style>
 </defs>
 <g id="Capa_x0020_1">
  <metadata id="CorelCorpID_0Corel-Layer"/>
  <g id="_105553238040960">
   <path class="fil0" d="M2605.91 8470.62c-55.89,-28.24 -110.87,-57.99 -164.92,-89.2l0 -1830.56 -1636.8 -509.47c-30.41,-175.03 -47.31,-354.69 -49.52,-537.9 1.37,111.45 8.26,221.56 20.21,330.15l-0 0 1666.11 8.05 0 -3298.38c55.22,-31.89 111.38,-62.35 168.52,-91.14l-3.59 1.8 -0 0 0 3387.67 4864.9 -1.03c-6.84,61.16 -15.5,121.77 -25.57,181.89l-4839.32 0.3 0 413.72 458.43 145.39 0 176.52 -458.43 -152.65 0 1864.84zm4833.83 -2416.12c-1.71,9.66 -3.39,19.34 -5.19,28.97 1.8,-9.63 3.47,-19.31 5.19,-28.97zm-14.59 77.04c-1.83,9.07 -3.6,18.15 -5.5,27.19 1.9,-9.04 3.67,-18.13 5.5,-27.19zm-16.4 76.74c-1.9,8.41 -3.74,16.84 -5.7,25.22 1.96,-8.38 3.8,-16.82 5.7,-25.22zm-18.35 76.93c-1.86,7.41 -3.64,14.86 -5.55,22.25 1.91,-7.39 3.69,-14.84 5.55,-22.25zm-20.48 77.7c-1.65,5.97 -3.22,11.98 -4.91,17.93 1.68,-5.96 3.25,-11.96 4.91,-17.93zm-22.83 78.85c-1.19,3.93 -2.31,7.89 -3.51,11.81 1.2,-3.92 2.32,-7.88 3.51,-11.81zm-200.22 507.13c-0.88,1.78 -1.8,3.54 -2.68,5.33 0.88,-1.78 1.8,-3.54 2.68,-5.33zm-33.97 67.04c-1.39,2.67 -2.83,5.31 -4.23,7.98 1.4,-2.67 2.84,-5.31 4.23,-7.98zm-35.48 66.3c-1.73,3.15 -3.51,6.26 -5.24,9.39 1.74,-3.14 3.52,-6.25 5.24,-9.39zm-36.84 65.29c-2.04,3.53 -4.14,7.03 -6.2,10.56 2.06,-3.52 4.15,-7.02 6.2,-10.56zm-38.42 64.67c-2.17,3.56 -4.37,7.09 -6.56,10.63 2.18,-3.55 4.39,-7.07 6.56,-10.63zm-39.67 63.52c-2.39,3.73 -4.81,7.44 -7.21,11.16 2.4,-3.72 4.83,-7.43 7.21,-11.16zm-41.19 62.8c-2.46,3.66 -4.94,7.3 -7.42,10.95 2.47,-3.65 4.96,-7.29 7.42,-10.95zm-42.59 61.89c-2.49,3.53 -5,7.04 -7.5,10.56 2.5,-3.52 5.01,-7.03 7.5,-10.56zm-184.45 238.45c-2.06,2.43 -4.11,4.87 -6.17,7.29l6.17 -7.29zm-5939.3 -2236.39c0.13,-7.41 0.39,-14.8 0.56,-22.2 -0.18,7.4 -0.43,14.78 -0.56,22.2zm1.58 -59.8c0.3,-8.63 0.73,-17.22 1.09,-25.83 -0.37,8.61 -0.79,17.2 -1.09,25.83zm2.59 -59.14c0.5,-9.53 1.12,-19.02 1.7,-28.53 -0.58,9.5 -1.2,19 -1.7,28.53zm3.61 -59c0.68,-9.74 1.47,-19.44 2.23,-29.15 -0.76,9.71 -1.56,19.42 -2.23,29.15zm4.64 -58.96c0.85,-9.76 1.8,-19.5 2.74,-29.23 -0.94,9.74 -1.89,19.47 -2.74,29.23zm5.63 -58.52c1.03,-9.84 2.15,-19.65 3.26,-29.47 -1.11,9.81 -2.23,19.63 -3.26,29.47zm6.61 -58.17c1.22,-9.94 2.51,-19.86 3.81,-29.78 -1.3,9.92 -2.59,19.83 -3.81,29.78zm7.6 -57.85c1.39,-9.96 2.85,-19.91 4.33,-29.84 -1.48,9.93 -2.94,19.88 -4.33,29.84zm8.59 -57.65c1.57,-9.98 3.2,-19.94 4.85,-29.89 -1.66,9.95 -3.28,19.91 -4.85,29.89zm9.55 -57.28c1.74,-9.91 3.51,-19.8 5.33,-29.68 -1.83,9.88 -3.59,19.77 -5.33,29.68zm10.51 -56.96c1.92,-9.92 3.85,-19.83 5.86,-29.71 -2,9.89 -3.94,19.8 -5.86,29.71zm11.49 -56.74c2.07,-9.8 4.15,-19.59 6.3,-29.37 -2.15,9.77 -4.23,19.57 -6.3,29.37zm12.37 -56.15c2.26,-9.84 4.51,-19.69 6.85,-29.5 -2.34,9.81 -4.6,19.66 -6.85,29.5zm13.36 -56.02c2.41,-9.72 4.79,-19.44 7.28,-29.13 -2.49,9.68 -4.87,19.41 -7.28,29.13zm14.37 -55.96c2.53,-9.52 5.03,-19.05 7.64,-28.54 -2.61,9.48 -5.11,19.02 -7.64,28.54zm15.23 -55.33c2.68,-9.43 5.32,-18.88 8.08,-28.28 -2.76,9.4 -5.4,18.85 -8.08,28.28zm16.2 -55.13c2.8,-9.25 5.55,-18.53 8.43,-27.75 -2.88,9.22 -5.63,18.5 -8.43,27.75zm17.26 -55.21c5.8,-18 11.74,-35.93 17.83,-53.79 -6.09,17.87 -12.04,35.8 -17.83,53.79zm26.52 -79.28c3.23,-9.24 6.61,-18.41 9.92,-27.61 -3.31,9.2 -6.69,18.37 -9.92,27.61zm19.26 -53.53c3.26,-8.81 6.64,-17.57 9.96,-26.35 -3.33,8.78 -6.7,17.54 -9.96,26.35zm20.17 -53.21c3.39,-8.71 6.89,-17.37 10.34,-26.04 -3.46,8.68 -6.95,17.33 -10.34,26.04zm20.96 -52.57c3.5,-8.58 7.1,-17.1 10.67,-25.65 -3.57,8.54 -7.17,17.07 -10.67,25.65zm21.96 -52.49c3.54,-8.25 7.15,-16.46 10.75,-24.69 -3.6,8.22 -7.22,16.43 -10.75,24.69zm22.76 -51.91c3.59,-8.01 7.25,-15.99 10.91,-23.96 -3.65,7.98 -7.31,15.95 -10.91,23.96zm23.69 -51.62c3.67,-7.83 7.4,-15.64 11.13,-23.44 -3.73,7.8 -7.46,15.6 -11.13,23.44zm24.42 -50.94c3.77,-7.7 7.59,-15.38 11.41,-23.05 -3.83,7.67 -7.64,15.35 -11.41,23.05zm25.3 -50.58c3.85,-7.55 7.74,-15.07 11.65,-22.59 -3.91,7.51 -7.8,15.04 -11.65,22.59zm26.33 -50.48c3.8,-7.13 7.61,-14.25 11.46,-21.35 -3.84,7.1 -7.66,14.22 -11.46,21.35zm27.13 -49.95c3.81,-6.88 7.63,-13.76 11.5,-20.61 -3.86,6.85 -7.69,13.73 -11.5,20.61zm27.95 -49.44c3.78,-6.57 7.56,-13.14 11.39,-19.68 -3.83,6.54 -7.61,13.11 -11.39,19.68zm28.94 -49.24c3.74,-6.24 7.46,-12.48 11.23,-18.69 -3.78,6.21 -7.5,12.45 -11.23,18.69zm29.99 -49.09c3.52,-5.65 7.01,-11.33 10.57,-16.96 -3.55,5.63 -7.05,11.31 -10.57,16.96zm31.54 -49.68c3.07,-4.75 6.11,-9.52 9.2,-14.25 -3.1,4.73 -6.13,9.5 -9.2,14.25zm32.91 -49.9c2.44,-3.63 4.84,-7.3 7.3,-10.91 -2.45,3.62 -4.86,7.28 -7.3,10.91zm211.97 -282.19c1.69,-2.02 3.41,-4.02 5.1,-6.03 -1.69,2.02 -3.41,4.01 -5.1,6.03zm36.64 -43.05c1.98,-2.3 4,-4.56 5.99,-6.85 -1.99,2.29 -4,4.56 -5.99,6.85zm37 -42.05c2.5,-2.79 5.02,-5.56 7.53,-8.34 -2.51,2.78 -5.03,5.55 -7.53,8.34zm38.19 -41.96c2.44,-2.65 4.91,-5.28 7.37,-7.91 -2.45,2.64 -4.92,5.26 -7.37,7.91zm597.44 956.65l0 372.8 -1134.75 0 0 -368.35 89.12 0 0 267.35 423.3 0 0 -243.58 90.6 0 0 243.58 442.61 0 0 -271.8 89.12 0 0 0zm-1045.63 491.38l0 175.26 1045.63 0 0 101 -1045.63 0 0 176.75 -89.12 0 0 -453.01 89.12 0zm1045.63 541.87l0 105.45 -607.97 210.91 -20.3 -13.86 0 -179.22 -417.36 0 0 258.44 1045.63 0 0 101 -1134.75 0 0 -376.27c0,-24.76 7.92,-45.05 23.52,-60.65 15.6,-15.6 35.89,-23.52 60.65,-23.52l424.3 0c56.19,0 84.17,36.63 84.17,110.16 0,7.18 -0.25,17.82 -0.99,31.93 -0.74,13.87 -1.24,24.02 -1.24,30.45 180.95,-65.35 362.41,-130.2 544.35,-194.81zm394.79 -2729.3c13.73,-6.74 27.52,-13.38 41.35,-19.93 -13.83,6.55 -27.62,13.19 -41.35,19.93zm75.89 -36.05c12.28,-5.65 24.59,-11.22 36.95,-16.72 -12.36,5.5 -24.67,11.08 -36.95,16.72zm75.07 -33.4c12.19,-5.25 24.41,-10.43 36.68,-15.53 -12.26,5.11 -24.49,10.28 -36.68,15.53zm79.02 -32.83c10.84,-4.34 21.72,-8.62 32.61,-12.85 -10.89,4.23 -21.77,8.51 -32.61,12.85zm76.5 -29.54c10.14,-3.78 20.3,-7.52 30.48,-11.2 -10.19,3.68 -20.34,7.42 -30.48,11.2zm80.94 -28.97c9.07,-3.11 18.15,-6.18 27.26,-9.21 -9.1,3.04 -18.19,6.1 -27.26,9.21zm78.96 -26c8.44,-2.67 16.89,-5.3 25.35,-7.9 -8.47,2.6 -16.92,5.23 -25.35,7.9zm82.65 -24.94c6.51,-1.87 13.02,-3.72 19.55,-5.56 -6.52,1.83 -13.04,3.69 -19.55,5.56zm80.23 -21.98c6.44,-1.68 12.89,-3.34 19.34,-4.98 -6.46,1.64 -12.9,3.3 -19.34,4.98zm84.62 -20.91c4.81,-1.12 9.64,-2.22 14.46,-3.32 -4.82,1.1 -9.65,2.2 -14.46,3.32zm81.09 -17.83c4.27,-0.89 8.54,-1.78 12.81,-2.65 -4.27,0.87 -8.54,1.76 -12.81,2.65zm85.24 -16.52c3.6,-0.65 7.2,-1.28 10.81,-1.91 -3.6,0.64 -7.21,1.26 -10.81,1.91zm1442.95 52.55c1426.27,366.96 2487.07,1644.39 2525.81,3175.81 -38.8,-1531.42 -1099.58,-2808.85 -2525.81,-3175.81zm2522.84 3427.55c-0.3,6.28 -0.64,12.54 -0.98,18.81 0.34,-6.26 0.67,-12.54 0.98,-18.81zm-4.7 77.47c-0.9,12.69 -1.9,25.34 -2.94,37.99 1.05,-12.65 2.03,-25.31 2.94,-37.99zm-6.43 77.22c-1.67,17.74 -3.49,35.44 -5.44,53.11 1.94,-17.66 3.76,-35.36 5.44,-53.11zm-317.51 -588.22l-132.94 -822.8 -134.27 822.8 267.21 0zm-3734.68 454.39l-92.93 0 -405.12 -1114.81 0 1114.81 -126.99 0 0 -1515.96 100.87 0 397.18 1095.63 0 -1095.63 126.99 0 0 1515.96 -0 0zm763.94 -1396.91l-234.14 0 0 1396.91 -134.93 0 0 -1396.91 -236.13 0 0 -119.06 605.2 0 0 119.06zm656.45 1396.91l-498.05 0 0 -1515.96 492.1 0 0 119.06 -357.17 0 0 565.51 325.42 0 0 121.04 -325.42 0 0 591.3 363.11 0 0 119.06 0 -0.01zm835.37 0l-92.93 0 -405.11 -1114.81 0 1114.81 -126.99 0 0 -1515.96 100.86 0 397.18 1095.63 0 -1095.63 126.99 0 0 1515.96zm833.38 -112.44c0,33.07 -10.25,60.19 -31.08,81.02 -20.84,20.84 -47.95,31.42 -81.35,31.42l-372.38 0c-32.74,0 -59.86,-10.58 -80.69,-31.42 -21.17,-20.84 -31.75,-47.95 -31.75,-81.02l0 -379.65 134.93 0 0 373.04 327.41 0 0 -362.13 -418.68 -504.66c-29.1,-34.73 -43.66,-73.09 -43.66,-114.76l0 -302.93c0,-33.07 10.59,-60.19 31.75,-81.02 20.83,-20.83 47.95,-31.42 80.69,-31.42l372.38 0c33.4,0 60.52,10.58 81.35,31.42 20.83,20.84 31.08,47.95 31.08,81.02l0 347.9 -134.93 0 0 -341.29 -327.4 0 0 320.46 420.66 504.33c27.78,33.73 41.67,71.44 41.67,113.1l0 346.59 0 0zm849.26 112.44l-132.94 0 -53.24 -335.33 -301.94 0 -53.57 335.33 -128.98 0 0 -3.97 269.85 -1515.96 132.94 0 267.87 1519.93 0 0zm-5982.85 1770.21c-2.22,-3.11 -4.46,-6.2 -6.67,-9.31 2.21,3.11 4.44,6.2 6.67,9.31zm-45.99 -66.03c-2.91,-4.28 -5.81,-8.57 -8.7,-12.87l8.7 12.87zm-45.7 -69.09c-2.94,-4.57 -5.85,-9.18 -8.77,-13.77 2.93,4.59 5.83,9.19 8.77,13.77zm-44.63 -71.21c-2.2,-3.62 -4.35,-7.28 -6.54,-10.91 2.19,3.63 4.34,7.29 6.54,10.91zm-37.09 -62.57c-2.92,-5.03 -5.87,-10.04 -8.76,-15.08 2.89,5.05 5.85,10.05 8.76,15.08zm-39.72 -70.47c-3.59,-6.54 -7.17,-13.09 -10.72,-19.66 3.54,6.57 7.13,13.11 10.72,19.66zm-39.4 -74.02c-3.64,-7.06 -7.23,-14.14 -10.82,-21.22 3.59,7.08 7.18,14.17 10.82,21.22zm-38.05 -76.01c-3.3,-6.82 -6.51,-13.69 -9.77,-20.53 3.26,6.85 6.47,13.71 9.77,20.53zm-30.61 -65.16c-4.3,-9.38 -8.57,-18.77 -12.78,-28.2 4.21,9.43 8.49,18.81 12.78,28.2zm-33.14 -74.72c-3.66,-8.54 -7.33,-17.07 -10.93,-25.65 3.59,8.57 7.26,17.11 10.93,25.65zm-32.41 -78.23c-3.71,-9.3 -7.37,-18.62 -11,-27.96 3.63,9.34 7.29,18.66 11,27.96zm-30.94 -80.39c-3.5,-9.46 -6.89,-18.98 -10.31,-28.49 3.42,9.5 6.81,19.02 10.31,28.49zm-23.77 -66.7c-4.91,-14.2 -9.72,-28.45 -14.46,-42.74 4.73,14.29 9.54,28.54 14.46,42.74zm-26.31 -79.25c-3.93,-12.33 -7.79,-24.68 -11.58,-37.07 3.79,12.39 7.66,24.74 11.58,37.07zm-25.07 -82.41c-3.23,-11.14 -6.41,-22.3 -9.53,-33.48 3.12,11.19 6.3,22.34 9.53,33.48zm-23.28 -84.26c-3.01,-11.49 -5.9,-23.03 -8.8,-34.57 2.89,11.54 5.79,23.08 8.8,34.57zm-16.96 -68.01c-4.18,-17.44 -8.22,-34.93 -12.13,-52.48 3.91,17.54 7.95,35.04 12.13,52.48zm-18.81 -83.19c-3.78,-17.76 -7.39,-35.57 -10.9,-53.43 3.51,17.85 7.11,35.67 10.9,53.43zm-17.26 -86.64c-2.3,-12.38 -4.55,-24.77 -6.71,-37.19 2.16,12.43 4.4,24.82 6.71,37.19zm1627 -54.83l-1242.7 0.17 1242.7 365.55 0 -365.71 0 -0z"/>
   <path class="fil1" d="M2441 8381.66c-848.59,-490.06 -1463.43,-1339.49 -1636.82,-2340.28l1636.82 509.48 0 1830.8zm-2.87 -2356.64l-1242.7 0.17 1242.7 365.55 0 -365.71 0 -0z"/>
   <path class="fil2" d="M2605.91 2453.96c456.02,-230.47 971.48,-360.43 1517.34,-360.43 1860.55,0 3368.83,1508.28 3368.83,3368.83 0,127.9 -7.38,254.06 -21.26,378.25l-4864.92 1.03 0 -3387.67 0 -0zm4553.47 2739.65l-132.94 -822.8 -134.27 822.8 267.21 0zm-3734.68 454.39l-92.93 0 -405.12 -1114.81 0 1114.81 -126.99 0 0 -1515.96 100.87 0 397.18 1095.63 0 -1095.63 126.99 0 0 1515.96 -0 0zm763.94 -1396.91l-234.14 0 0 1396.91 -134.93 0 0 -1396.91 -236.13 0 0 -119.06 605.2 0 0 119.06zm656.45 1396.91l-498.05 0 0 -1515.96 492.1 0 0 119.06 -357.17 0 0 565.51 325.42 0 0 121.04 -325.42 0 0 591.3 363.11 0 0 119.06 0 -0.01zm835.37 0l-92.93 0 -405.11 -1114.81 0 1114.81 -126.99 0 0 -1515.96 100.86 0 397.18 1095.63 0 -1095.63 126.99 0 0 1515.96zm833.38 -112.44c0,33.07 -10.25,60.19 -31.08,81.02 -20.84,20.84 -47.95,31.42 -81.35,31.42l-372.38 0c-32.74,0 -59.86,-10.58 -80.69,-31.42 -21.17,-20.84 -31.75,-47.95 -31.75,-81.02l0 -379.65 134.93 0 0 373.04 327.41 0 0 -362.13 -418.68 -504.66c-29.1,-34.73 -43.66,-73.09 -43.66,-114.76l0 -302.93c0,-33.07 10.59,-60.19 31.75,-81.02 20.83,-20.83 47.95,-31.42 80.69,-31.42l372.38 0c33.4,0 60.52,10.58 81.35,31.42 20.83,20.84 31.08,47.95 31.08,81.02l0 347.9 -134.93 0 0 -341.29 -327.4 0 0 320.46 420.66 504.33c27.78,33.73 41.67,71.44 41.67,113.1l0 346.59 0 0zm849.26 112.44l-132.94 0 -53.24 -335.33 -301.94 0 -53.57 335.33 -128.98 0 0 -3.97 269.85 -1515.96 132.94 0 267.87 1519.93 0 0z"/>
   <path class="fil3" d="M774.88 5833.64c-13.42,-121.92 -20.46,-245.77 -20.46,-371.27 0,-1247.82 678.46,-2337.12 1686.57,-2919.3l0 3298.62 -1666.11 -8.05 0 0zm1472.36 -1701.59l0 372.8 -1134.75 0 0 -368.35 89.12 0 0 267.35 423.3 0 0 -243.58 90.6 0 0 243.58 442.61 0 0 -271.8 89.12 0 0 0zm-1045.63 491.38l0 175.26 1045.63 0 0 101 -1045.63 0 0 176.75 -89.12 0 0 -453.01 89.12 0zm1045.63 541.87l0 105.45 -607.97 210.91 -20.3 -13.86 0 -179.22 -417.36 0 0 258.44 1045.63 0 0 101 -1134.75 0 0 -376.27c0,-24.76 7.92,-45.05 23.52,-60.65 15.6,-15.6 35.89,-23.52 60.65,-23.52l424.3 0c56.19,0 84.17,36.63 84.17,110.16 0,7.18 -0.25,17.82 -0.99,31.93 -0.74,13.87 -1.24,24.02 -1.24,30.45 180.95,-65.35 362.41,-130.2 544.35,-194.81z"/>
   <path class="fil4" d="M4123.26 8831.19c-545.87,0 -1061.33,-129.97 -1517.34,-360.43l0 -1864.98 458.43 152.65 0 -176.52 -458.43 -145.39 0 -413.72 4839.56 -0.3c-266.78,1593.92 -1652.52,2808.69 -3322.21,2808.69l-0 0z"/>
  </g>
 </g>
</svg>
